<?xml version="1.0" encoding="UTF-8" standalone="no"?>
<!DOCTYPE svg PUBLIC "-//W3C//DTD SVG 1.1//EN"
 "http://www.w3.org/Graphics/SVG/1.1/DTD/svg11.dtd">
<!-- Generated by graphviz version 2.40.1 (20161225.0304)
 -->
<!-- Title: %0 Pages: 1 -->
<svg width="3477pt" height="526pt"
 viewBox="0.00 0.00 3476.70 526.40" xmlns="http://www.w3.org/2000/svg" xmlns:xlink="http://www.w3.org/1999/xlink">
<g id="graph0" class="graph" transform="scale(1 1) rotate(0) translate(4 522.4)">
<title>%0</title>
<polygon fill="#ffffff" stroke="transparent" points="-4,4 -4,-522.4 3472.7014,-522.4 3472.7014,4 -4,4"/>
<!-- START -->
<g id="START" class="node">
<title>START</title>
<ellipse fill="none" stroke="#000000" cx="1330.1729" cy="-500.4" rx="41.7308" ry="18"/>
<text text-anchor="middle" x="1330.1729" y="-496.2" font-family="Times,serif" font-size="14.00" fill="#000000">START</text>
</g>
<!-- http://example.org#Buildings.Controls.OBC.ASHRAE.G36.TerminalUnits.CoolingOnly.Controller.actAirSet -->
<g id="http://example.org#Buildings.Controls.OBC.ASHRAE.G36.TerminalUnits.CoolingOnly.Controller.actAirSet" class="node">
<title>http://example.org#Buildings.Controls.OBC.ASHRAE.G36.TerminalUnits.CoolingOnly.Controller.actAirSet</title>
<ellipse fill="none" stroke="#000000" cx="639.1729" cy="-303.6" rx="435.1787" ry="18"/>
<text text-anchor="middle" x="639.1729" y="-299.4" font-family="Times,serif" font-size="14.00" fill="#000000">http://example.org#Buildings.Controls.OBC.ASHRAE.G36.TerminalUnits.CoolingOnly.Controller.actAirSet</text>
</g>
<!-- START&#45;&gt;http://example.org#Buildings.Controls.OBC.ASHRAE.G36.TerminalUnits.CoolingOnly.Controller.actAirSet -->
<g id="edge1" class="edge">
<title>START&#45;&gt;http://example.org#Buildings.Controls.OBC.ASHRAE.G36.TerminalUnits.CoolingOnly.Controller.actAirSet</title>
<path fill="none" stroke="#000000" d="M1289.7372,-495.8492C1205.227,-485.8447 1012.9403,-460.3608 955.0861,-429.6 933.7003,-418.2293 932.5215,-409.4105 914.1729,-393.6 885.979,-369.3062 883.9249,-355.2809 850.1729,-339.6 836.8327,-333.4023 811.5652,-327.5951 783.0228,-322.5295"/>
<polygon fill="#000000" stroke="#000000" points="783.2537,-319.0178 772.8047,-320.7692 782.0653,-325.9162 783.2537,-319.0178"/>
<text text-anchor="middle" x="1021.7163" y="-407.4" font-family="Times,serif" font-size="14.00" fill="#000000">uOpeMod &#45;&gt; uOpeMod</text>
</g>
<!-- http://example.org#Buildings.Controls.OBC.ASHRAE.G36.TerminalUnits.CoolingOnly.Controller.minFlo -->
<g id="http://example.org#Buildings.Controls.OBC.ASHRAE.G36.TerminalUnits.CoolingOnly.Controller.minFlo" class="node">
<title>http://example.org#Buildings.Controls.OBC.ASHRAE.G36.TerminalUnits.CoolingOnly.Controller.minFlo</title>
<ellipse fill="none" stroke="#000000" cx="478.1729" cy="-411.6" rx="426.557" ry="18"/>
<text text-anchor="middle" x="478.1729" y="-407.4" font-family="Times,serif" font-size="14.00" fill="#000000">http://example.org#Buildings.Controls.OBC.ASHRAE.G36.TerminalUnits.CoolingOnly.Controller.minFlo</text>
</g>
<!-- START&#45;&gt;http://example.org#Buildings.Controls.OBC.ASHRAE.G36.TerminalUnits.CoolingOnly.Controller.minFlo -->
<g id="edge10" class="edge">
<title>START&#45;&gt;http://example.org#Buildings.Controls.OBC.ASHRAE.G36.TerminalUnits.CoolingOnly.Controller.minFlo</title>
<path fill="none" stroke="#000000" d="M1288.6801,-499.0074C1198.457,-495.6737 977.7643,-485.8639 794.0861,-464.4 721.8867,-455.9631 641.0485,-442.375 579.22,-431.0964"/>
<polygon fill="#000000" stroke="#000000" points="579.5429,-427.5974 569.0755,-429.2356 578.2799,-434.4825 579.5429,-427.5974"/>
<text text-anchor="middle" x="860.7163" y="-451.8" font-family="Times,serif" font-size="14.00" fill="#000000">uOpeMod &#45;&gt; uOpeMod</text>
</g>
<!-- http://example.org#Buildings.Controls.OBC.ASHRAE.G36.TerminalUnits.CoolingOnly.Controller.ala -->
<g id="http://example.org#Buildings.Controls.OBC.ASHRAE.G36.TerminalUnits.CoolingOnly.Controller.ala" class="node">
<title>http://example.org#Buildings.Controls.OBC.ASHRAE.G36.TerminalUnits.CoolingOnly.Controller.ala</title>
<ellipse fill="none" stroke="#000000" cx="897.1729" cy="-106.8" rx="409.7618" ry="18"/>
<text text-anchor="middle" x="897.1729" y="-102.6" font-family="Times,serif" font-size="14.00" fill="#000000">http://example.org#Buildings.Controls.OBC.ASHRAE.G36.TerminalUnits.CoolingOnly.Controller.ala</text>
</g>
<!-- START&#45;&gt;http://example.org#Buildings.Controls.OBC.ASHRAE.G36.TerminalUnits.CoolingOnly.Controller.ala -->
<g id="edge3" class="edge">
<title>START&#45;&gt;http://example.org#Buildings.Controls.OBC.ASHRAE.G36.TerminalUnits.CoolingOnly.Controller.ala</title>
<path fill="none" stroke="#000000" d="M1288.3567,-499.5108C1072.3207,-494.7405 90.7849,-470.8507 42.1729,-429.6 -7.297,-387.6214 -10.0019,-344.0279 18.2053,-285.6 51.7571,-216.1013 82.5943,-206.4496 154.1729,-177.6 230.2482,-146.938 412.7878,-129.2877 577.8875,-119.2785"/>
<polygon fill="#000000" stroke="#000000" points="578.4603,-122.7506 588.2336,-118.6598 578.0424,-115.763 578.4603,-122.7506"/>
<text text-anchor="middle" x="91.1567" y="-299.4" font-family="Times,serif" font-size="14.00" fill="#000000">VDis_flow &#45;&gt; VDis_flow</text>
</g>
<!-- http://example.org#Buildings.Controls.OBC.ASHRAE.G36.TerminalUnits.CoolingOnly.Controller.dam -->
<g id="http://example.org#Buildings.Controls.OBC.ASHRAE.G36.TerminalUnits.CoolingOnly.Controller.dam" class="node">
<title>http://example.org#Buildings.Controls.OBC.ASHRAE.G36.TerminalUnits.CoolingOnly.Controller.dam</title>
<ellipse fill="none" stroke="#000000" cx="1148.1729" cy="-195.6" rx="415.0024" ry="18"/>
<text text-anchor="middle" x="1148.1729" y="-191.4" font-family="Times,serif" font-size="14.00" fill="#000000">http://example.org#Buildings.Controls.OBC.ASHRAE.G36.TerminalUnits.CoolingOnly.Controller.dam</text>
</g>
<!-- START&#45;&gt;http://example.org#Buildings.Controls.OBC.ASHRAE.G36.TerminalUnits.CoolingOnly.Controller.dam -->
<g id="edge6" class="edge">
<title>START&#45;&gt;http://example.org#Buildings.Controls.OBC.ASHRAE.G36.TerminalUnits.CoolingOnly.Controller.dam</title>
<path fill="none" stroke="#000000" d="M1289.945,-495.1333C1230.4176,-484.7417 1123.2928,-455.2155 1099.2053,-375.6 1082.891,-321.6773 1111.3584,-257.9243 1131.2809,-222.5986"/>
<polygon fill="#000000" stroke="#000000" points="1134.3751,-224.2403 1136.3791,-213.8367 1128.3247,-220.7198 1134.3751,-224.2403"/>
<text text-anchor="middle" x="1172.1567" y="-353.4" font-family="Times,serif" font-size="14.00" fill="#000000">VDis_flow &#45;&gt; VDis_flow</text>
</g>
<!-- http://example.org#Buildings.Controls.OBC.ASHRAE.G36.TerminalUnits.CoolingOnly.Controller.conLoo -->
<g id="http://example.org#Buildings.Controls.OBC.ASHRAE.G36.TerminalUnits.CoolingOnly.Controller.conLoo" class="node">
<title>http://example.org#Buildings.Controls.OBC.ASHRAE.G36.TerminalUnits.CoolingOnly.Controller.conLoo</title>
<ellipse fill="none" stroke="#000000" cx="1572.1729" cy="-411.6" rx="428.2477" ry="18"/>
<text text-anchor="middle" x="1572.1729" y="-407.4" font-family="Times,serif" font-size="14.00" fill="#000000">http://example.org#Buildings.Controls.OBC.ASHRAE.G36.TerminalUnits.CoolingOnly.Controller.conLoo</text>
</g>
<!-- START&#45;&gt;http://example.org#Buildings.Controls.OBC.ASHRAE.G36.TerminalUnits.CoolingOnly.Controller.conLoo -->
<g id="edge5" class="edge">
<title>START&#45;&gt;http://example.org#Buildings.Controls.OBC.ASHRAE.G36.TerminalUnits.CoolingOnly.Controller.conLoo</title>
<path fill="none" stroke="#000000" d="M1362.059,-488.6996C1400.4828,-474.6003 1465.8091,-450.6293 1513.4404,-433.1514"/>
<polygon fill="#000000" stroke="#000000" points="1514.8361,-436.3675 1523.0183,-429.6369 1512.4247,-429.796 1514.8361,-436.3675"/>
<text text-anchor="middle" x="1513.0557" y="-451.8" font-family="Times,serif" font-size="14.00" fill="#000000">TZon &#45;&gt; TZon</text>
</g>
<!-- http://example.org#Buildings.Controls.OBC.ASHRAE.G36.TerminalUnits.CoolingOnly.Controller.setPoi -->
<g id="http://example.org#Buildings.Controls.OBC.ASHRAE.G36.TerminalUnits.CoolingOnly.Controller.setPoi" class="node">
<title>http://example.org#Buildings.Controls.OBC.ASHRAE.G36.TerminalUnits.CoolingOnly.Controller.setPoi</title>
<ellipse fill="none" stroke="#000000" cx="2163.1729" cy="-357.6" rx="422.4605" ry="18"/>
<text text-anchor="middle" x="2163.1729" y="-353.4" font-family="Times,serif" font-size="14.00" fill="#000000">http://example.org#Buildings.Controls.OBC.ASHRAE.G36.TerminalUnits.CoolingOnly.Controller.setPoi</text>
</g>
<!-- START&#45;&gt;http://example.org#Buildings.Controls.OBC.ASHRAE.G36.TerminalUnits.CoolingOnly.Controller.setPoi -->
<g id="edge11" class="edge">
<title>START&#45;&gt;http://example.org#Buildings.Controls.OBC.ASHRAE.G36.TerminalUnits.CoolingOnly.Controller.setPoi</title>
<path fill="none" stroke="#000000" d="M1371.8144,-497.878C1500.0832,-489.8238 1887.8273,-463.264 2009.1729,-429.6 2049.8951,-418.3028 2093.2415,-397.1183 2123.5369,-380.6413"/>
<polygon fill="#000000" stroke="#000000" points="2125.4373,-383.5902 2132.5025,-375.695 2122.0559,-377.4611 2125.4373,-383.5902"/>
<text text-anchor="middle" x="1981.7163" y="-451.8" font-family="Times,serif" font-size="14.00" fill="#000000">uOpeMod &#45;&gt; uOpeMod</text>
</g>
<!-- http://example.org#Buildings.Controls.OBC.ASHRAE.G36.TerminalUnits.CoolingOnly.Controller.sysReq -->
<g id="http://example.org#Buildings.Controls.OBC.ASHRAE.G36.TerminalUnits.CoolingOnly.Controller.sysReq" class="node">
<title>http://example.org#Buildings.Controls.OBC.ASHRAE.G36.TerminalUnits.CoolingOnly.Controller.sysReq</title>
<ellipse fill="none" stroke="#000000" cx="2600.1729" cy="-106.8" rx="426.5376" ry="18"/>
<text text-anchor="middle" x="2600.1729" y="-102.6" font-family="Times,serif" font-size="14.00" fill="#000000">http://example.org#Buildings.Controls.OBC.ASHRAE.G36.TerminalUnits.CoolingOnly.Controller.sysReq</text>
</g>
<!-- START&#45;&gt;http://example.org#Buildings.Controls.OBC.ASHRAE.G36.TerminalUnits.CoolingOnly.Controller.sysReq -->
<g id="edge12" class="edge">
<title>START&#45;&gt;http://example.org#Buildings.Controls.OBC.ASHRAE.G36.TerminalUnits.CoolingOnly.Controller.sysReq</title>
<path fill="none" stroke="#000000" d="M1372.0663,-499.7125C1591.6876,-495.8401 2600.1729,-474.6265 2600.1729,-411.6 2600.1729,-411.6 2600.1729,-411.6 2600.1729,-195.6 2600.1729,-175.3006 2600.1729,-152.391 2600.1729,-134.9264"/>
<polygon fill="#000000" stroke="#000000" points="2603.673,-134.8279 2600.1729,-124.8279 2596.673,-134.8279 2603.673,-134.8279"/>
<text text-anchor="middle" x="2672.1567" y="-299.4" font-family="Times,serif" font-size="14.00" fill="#000000">VDis_flow &#45;&gt; VDis_flow</text>
</g>
<!-- http://example.org#Buildings.Controls.OBC.ASHRAE.G36.TerminalUnits.CoolingOnly.Controller.timSup -->
<g id="http://example.org#Buildings.Controls.OBC.ASHRAE.G36.TerminalUnits.CoolingOnly.Controller.timSup" class="node">
<title>http://example.org#Buildings.Controls.OBC.ASHRAE.G36.TerminalUnits.CoolingOnly.Controller.timSup</title>
<ellipse fill="none" stroke="#000000" cx="3042.1729" cy="-249.6" rx="426.557" ry="18"/>
<text text-anchor="middle" x="3042.1729" y="-245.4" font-family="Times,serif" font-size="14.00" fill="#000000">http://example.org#Buildings.Controls.OBC.ASHRAE.G36.TerminalUnits.CoolingOnly.Controller.timSup</text>
</g>
<!-- START&#45;&gt;http://example.org#Buildings.Controls.OBC.ASHRAE.G36.TerminalUnits.CoolingOnly.Controller.timSup -->
<g id="edge16" class="edge">
<title>START&#45;&gt;http://example.org#Buildings.Controls.OBC.ASHRAE.G36.TerminalUnits.CoolingOnly.Controller.timSup</title>
<path fill="none" stroke="#000000" d="M1371.8284,-500.306C1578.8104,-499.6948 2491.5812,-495.2573 2614.1729,-464.4 2771.5124,-424.7963 2937.6894,-320.7475 3007.7955,-273.5236"/>
<polygon fill="#000000" stroke="#000000" points="3009.944,-276.2956 3016.2554,-267.7857 3006.0147,-270.5024 3009.944,-276.2956"/>
<text text-anchor="middle" x="2838.0557" y="-407.4" font-family="Times,serif" font-size="14.00" fill="#000000">TZon &#45;&gt; TZon</text>
</g>
<!-- END -->
<g id="END" class="node">
<title>END</title>
<ellipse fill="none" stroke="#000000" cx="1343.1729" cy="-18" rx="30.7577" ry="18"/>
<text text-anchor="middle" x="1343.1729" y="-13.8" font-family="Times,serif" font-size="14.00" fill="#000000">END</text>
</g>
<!-- http://example.org#Buildings.Controls.OBC.ASHRAE.G36.TerminalUnits.CoolingOnly.Controller.actAirSet&#45;&gt;http://example.org#Buildings.Controls.OBC.ASHRAE.G36.TerminalUnits.CoolingOnly.Controller.dam -->
<g id="edge9" class="edge">
<title>http://example.org#Buildings.Controls.OBC.ASHRAE.G36.TerminalUnits.CoolingOnly.Controller.actAirSet&#45;&gt;http://example.org#Buildings.Controls.OBC.ASHRAE.G36.TerminalUnits.CoolingOnly.Controller.dam</title>
<path fill="none" stroke="#000000" d="M680.5638,-285.5756C720.5198,-268.9384 783.1089,-244.8632 839.6295,-231.6 872.7217,-223.8345 908.2219,-217.7107 942.9384,-212.8908"/>
<polygon fill="#000000" stroke="#000000" points="943.7538,-216.3123 953.1932,-211.5012 942.8138,-209.3757 943.7538,-216.3123"/>
<text text-anchor="middle" x="964.4446" y="-245.4" font-family="Times,serif" font-size="14.00" fill="#000000">actAirSet.VActMin_flow &#45;&gt; VActMin_flow</text>
</g>
<!-- http://example.org#Buildings.Controls.OBC.ASHRAE.G36.TerminalUnits.CoolingOnly.Controller.minFlo&#45;&gt;END -->
<g id="edge20" class="edge">
<title>http://example.org#Buildings.Controls.OBC.ASHRAE.G36.TerminalUnits.CoolingOnly.Controller.minFlo&#45;&gt;END</title>
<path fill="none" stroke="#000000" d="M372.1236,-394.1617C285.1053,-376.7505 176.1729,-346.4058 176.1729,-303.6 176.1729,-303.6 176.1729,-303.6 176.1729,-106.8 176.1729,-49.1004 1095.1663,-23.8778 1302.1186,-18.9294"/>
<polygon fill="#000000" stroke="#000000" points="1302.3446,-22.4251 1312.2591,-18.6896 1302.1791,-15.427 1302.3446,-22.4251"/>
<text text-anchor="middle" x="241.3709" y="-191.4" font-family="Times,serif" font-size="14.00" fill="#000000">minFlo.yCO2 &#45;&gt; yCO2</text>
</g>
<!-- http://example.org#Buildings.Controls.OBC.ASHRAE.G36.TerminalUnits.CoolingOnly.Controller.minFlo&#45;&gt;http://example.org#Buildings.Controls.OBC.ASHRAE.G36.TerminalUnits.CoolingOnly.Controller.actAirSet -->
<g id="edge2" class="edge">
<title>http://example.org#Buildings.Controls.OBC.ASHRAE.G36.TerminalUnits.CoolingOnly.Controller.minFlo&#45;&gt;http://example.org#Buildings.Controls.OBC.ASHRAE.G36.TerminalUnits.CoolingOnly.Controller.actAirSet</title>
<path fill="none" stroke="#000000" d="M505.1207,-393.5232C532.1702,-375.3782 573.9836,-347.3295 603.7124,-327.3871"/>
<polygon fill="#000000" stroke="#000000" points="605.7824,-330.2132 612.1372,-321.7357 601.8828,-324.4 605.7824,-330.2132"/>
<text text-anchor="middle" x="714.8394" y="-353.4" font-family="Times,serif" font-size="14.00" fill="#000000">minFlo.VOccZonMin_flow &#45;&gt; VOccMin_flow</text>
</g>
<!-- http://example.org#Buildings.Controls.OBC.ASHRAE.G36.TerminalUnits.CoolingOnly.Controller.ala&#45;&gt;END -->
<g id="edge21" class="edge">
<title>http://example.org#Buildings.Controls.OBC.ASHRAE.G36.TerminalUnits.CoolingOnly.Controller.ala&#45;&gt;END</title>
<path fill="none" stroke="#000000" d="M977.9732,-89.1199C1026.7667,-78.5887 1090.2331,-65.1472 1146.7095,-54 1200.892,-43.3056 1263.6989,-31.9839 1303.4274,-24.9549"/>
<polygon fill="#000000" stroke="#000000" points="1304.2629,-28.3616 1313.5025,-23.1768 1303.0463,-21.4681 1304.2629,-28.3616"/>
<text text-anchor="middle" x="1238.4046" y="-58.2" font-family="Times,serif" font-size="14.00" fill="#000000">ala.yLowFloAla &#45;&gt; yLowFloAla</text>
</g>
<!-- http://example.org#Buildings.Controls.OBC.ASHRAE.G36.TerminalUnits.CoolingOnly.Controller.dam&#45;&gt;END -->
<g id="edge19" class="edge">
<title>http://example.org#Buildings.Controls.OBC.ASHRAE.G36.TerminalUnits.CoolingOnly.Controller.dam&#45;&gt;END</title>
<path fill="none" stroke="#000000" d="M1230.5029,-177.9043C1261.4455,-167.3364 1294.3715,-150.716 1316.1729,-124.8 1334.75,-102.7168 1340.8079,-69.5625 1342.6508,-46.0599"/>
<polygon fill="#000000" stroke="#000000" points="1346.1484,-46.2002 1343.2307,-36.0151 1339.16,-45.7967 1346.1484,-46.2002"/>
<text text-anchor="middle" x="1391.9649" y="-102.6" font-family="Times,serif" font-size="14.00" fill="#000000">dam.yDam &#45;&gt; yDam</text>
</g>
<!-- http://example.org#Buildings.Controls.OBC.ASHRAE.G36.TerminalUnits.CoolingOnly.Controller.dam&#45;&gt;http://example.org#Buildings.Controls.OBC.ASHRAE.G36.TerminalUnits.CoolingOnly.Controller.ala -->
<g id="edge4" class="edge">
<title>http://example.org#Buildings.Controls.OBC.ASHRAE.G36.TerminalUnits.CoolingOnly.Controller.dam&#45;&gt;http://example.org#Buildings.Controls.OBC.ASHRAE.G36.TerminalUnits.CoolingOnly.Controller.ala</title>
<path fill="none" stroke="#000000" d="M1097.3793,-177.63C1056.8938,-163.3069 1000.1004,-143.2142 957.3391,-128.0859"/>
<polygon fill="#000000" stroke="#000000" points="958.4857,-124.779 947.8909,-124.7433 956.151,-131.3782 958.4857,-124.779"/>
<text text-anchor="middle" x="1139.5112" y="-147" font-family="Times,serif" font-size="14.00" fill="#000000">dam.VSet_flow &#45;&gt; VActSet_flow</text>
</g>
<!-- http://example.org#Buildings.Controls.OBC.ASHRAE.G36.TerminalUnits.CoolingOnly.Controller.dam&#45;&gt;http://example.org#Buildings.Controls.OBC.ASHRAE.G36.TerminalUnits.CoolingOnly.Controller.sysReq -->
<g id="edge15" class="edge">
<title>http://example.org#Buildings.Controls.OBC.ASHRAE.G36.TerminalUnits.CoolingOnly.Controller.dam&#45;&gt;http://example.org#Buildings.Controls.OBC.ASHRAE.G36.TerminalUnits.CoolingOnly.Controller.sysReq</title>
<path fill="none" stroke="#000000" d="M1381.1271,-180.6921C1549.6078,-169.9729 1782.7174,-155.2706 1987.7081,-142.8 2102.7924,-135.7988 2230.0556,-128.2819 2338.6225,-121.9372"/>
<polygon fill="#000000" stroke="#000000" points="2338.9559,-125.4237 2348.7347,-121.3464 2338.5476,-118.4356 2338.9559,-125.4237"/>
<text text-anchor="middle" x="2071.4053" y="-147" font-family="Times,serif" font-size="14.00" fill="#000000">dam.VSet_flow &#45;&gt; VSet_flow</text>
</g>
<!-- http://example.org#Buildings.Controls.OBC.ASHRAE.G36.TerminalUnits.CoolingOnly.Controller.conLoo&#45;&gt;http://example.org#Buildings.Controls.OBC.ASHRAE.G36.TerminalUnits.CoolingOnly.Controller.dam -->
<g id="edge7" class="edge">
<title>http://example.org#Buildings.Controls.OBC.ASHRAE.G36.TerminalUnits.CoolingOnly.Controller.conLoo&#45;&gt;http://example.org#Buildings.Controls.OBC.ASHRAE.G36.TerminalUnits.CoolingOnly.Controller.dam</title>
<path fill="none" stroke="#000000" d="M1494.4593,-393.887C1428.6823,-379.0139 1331.8651,-357.402 1247.1729,-339.6 1207.0417,-331.1646 1183.7459,-352.4052 1156.6773,-321.6 1133.4502,-295.1666 1136.0043,-252.353 1141.1426,-224.0875"/>
<polygon fill="#000000" stroke="#000000" points="1144.6246,-224.5286 1143.1901,-214.0314 1137.7653,-223.132 1144.6246,-224.5286"/>
<text text-anchor="middle" x="1220.4207" y="-299.4" font-family="Times,serif" font-size="14.00" fill="#000000">conLoo.yCoo &#45;&gt; uCoo</text>
</g>
<!-- http://example.org#Buildings.Controls.OBC.ASHRAE.G36.TerminalUnits.CoolingOnly.Controller.zonSta -->
<g id="http://example.org#Buildings.Controls.OBC.ASHRAE.G36.TerminalUnits.CoolingOnly.Controller.zonSta" class="node">
<title>http://example.org#Buildings.Controls.OBC.ASHRAE.G36.TerminalUnits.CoolingOnly.Controller.zonSta</title>
<ellipse fill="none" stroke="#000000" cx="1717.1729" cy="-303.6" rx="424.8122" ry="18"/>
<text text-anchor="middle" x="1717.1729" y="-299.4" font-family="Times,serif" font-size="14.00" fill="#000000">http://example.org#Buildings.Controls.OBC.ASHRAE.G36.TerminalUnits.CoolingOnly.Controller.zonSta</text>
</g>
<!-- http://example.org#Buildings.Controls.OBC.ASHRAE.G36.TerminalUnits.CoolingOnly.Controller.conLoo&#45;&gt;http://example.org#Buildings.Controls.OBC.ASHRAE.G36.TerminalUnits.CoolingOnly.Controller.zonSta -->
<g id="edge17" class="edge">
<title>http://example.org#Buildings.Controls.OBC.ASHRAE.G36.TerminalUnits.CoolingOnly.Controller.conLoo&#45;&gt;http://example.org#Buildings.Controls.OBC.ASHRAE.G36.TerminalUnits.CoolingOnly.Controller.zonSta</title>
<path fill="none" stroke="#000000" d="M1571.0457,-393.5629C1571.052,-377.3857 1573.7322,-354.0362 1587.2789,-339.6 1592.5807,-333.9501 1603.8307,-328.8143 1617.597,-324.3048"/>
<polygon fill="#000000" stroke="#000000" points="1618.9457,-327.5525 1627.4873,-321.2842 1616.9011,-320.8578 1618.9457,-327.5525"/>
<text text-anchor="middle" x="1649.6199" y="-353.4" font-family="Times,serif" font-size="14.00" fill="#000000">conLoo.yHea &#45;&gt; uHea</text>
</g>
<!-- http://example.org#Buildings.Controls.OBC.ASHRAE.G36.TerminalUnits.CoolingOnly.Controller.conLoo&#45;&gt;http://example.org#Buildings.Controls.OBC.ASHRAE.G36.TerminalUnits.CoolingOnly.Controller.sysReq -->
<g id="edge14" class="edge">
<title>http://example.org#Buildings.Controls.OBC.ASHRAE.G36.TerminalUnits.CoolingOnly.Controller.conLoo&#45;&gt;http://example.org#Buildings.Controls.OBC.ASHRAE.G36.TerminalUnits.CoolingOnly.Controller.sysReq</title>
<path fill="none" stroke="#000000" d="M1673.856,-394.0045C1687.3518,-389.2618 1700.5278,-383.2415 1712.1729,-375.6 1729.1198,-364.4794 1722.1635,-348.9019 1740.1729,-339.6 1821.3991,-297.6467 2072.0868,-367.4603 2151.1729,-321.6 2216.6664,-283.6217 2179.7408,-220.4251 2242.1729,-177.6 2275.3664,-154.831 2363.8066,-137.2223 2444.4725,-125.2607"/>
<polygon fill="#000000" stroke="#000000" points="2445.3855,-128.6646 2454.7751,-123.7569 2444.3744,-121.738 2445.3855,-128.6646"/>
<text text-anchor="middle" x="2265.4207" y="-245.4" font-family="Times,serif" font-size="14.00" fill="#000000">conLoo.yCoo &#45;&gt; uCoo</text>
</g>
<!-- http://example.org#Buildings.Controls.OBC.ASHRAE.G36.TerminalUnits.CoolingOnly.Controller.zonSta&#45;&gt;http://example.org#Buildings.Controls.OBC.ASHRAE.G36.TerminalUnits.CoolingOnly.Controller.dam -->
<g id="edge8" class="edge">
<title>http://example.org#Buildings.Controls.OBC.ASHRAE.G36.TerminalUnits.CoolingOnly.Controller.zonSta&#45;&gt;http://example.org#Buildings.Controls.OBC.ASHRAE.G36.TerminalUnits.CoolingOnly.Controller.dam</title>
<path fill="none" stroke="#000000" d="M1624.4868,-286.0076C1521.9843,-266.5519 1357.3012,-235.294 1250.9274,-215.1035"/>
<polygon fill="#000000" stroke="#000000" points="1251.2966,-211.6111 1240.8193,-213.1849 1249.9912,-218.4884 1251.2966,-211.6111"/>
<text text-anchor="middle" x="1594.1921" y="-245.4" font-family="Times,serif" font-size="14.00" fill="#000000">zonSta.yZonSta &#45;&gt; uZonSta</text>
</g>
<!-- http://example.org#Buildings.Controls.OBC.ASHRAE.G36.TerminalUnits.CoolingOnly.Controller.setPoi&#45;&gt;END -->
<g id="edge18" class="edge">
<title>http://example.org#Buildings.Controls.OBC.ASHRAE.G36.TerminalUnits.CoolingOnly.Controller.setPoi&#45;&gt;END</title>
<path fill="none" stroke="#000000" d="M2209.1275,-339.6794C2258.0245,-317.7396 2324.8277,-277.7567 2297.1729,-231.6 2200.355,-70.0081 1554.163,-28.0511 1384.1143,-19.753"/>
<polygon fill="#000000" stroke="#000000" points="1384.2239,-16.2543 1374.0688,-19.2753 1383.8913,-23.2464 1384.2239,-16.2543"/>
<text text-anchor="middle" x="2398.1248" y="-191.4" font-family="Times,serif" font-size="14.00" fill="#000000">setPoi.VMinOA_flow &#45;&gt; VMinOA_flow</text>
</g>
<!-- http://example.org#Buildings.Controls.OBC.ASHRAE.G36.TerminalUnits.CoolingOnly.Controller.sysReq&#45;&gt;END -->
<g id="edge22" class="edge">
<title>http://example.org#Buildings.Controls.OBC.ASHRAE.G36.TerminalUnits.CoolingOnly.Controller.sysReq&#45;&gt;END</title>
<path fill="none" stroke="#000000" d="M2476.8639,-89.5233C2388.5704,-77.7677 2266.7665,-62.8019 2159.1729,-54 1862.8387,-29.7579 1504.5361,-21.0766 1384.5574,-18.7285"/>
<polygon fill="#000000" stroke="#000000" points="1384.419,-15.2253 1374.3537,-18.5329 1384.2848,-22.224 1384.419,-15.2253"/>
<text text-anchor="middle" x="2446.6781" y="-58.2" font-family="Times,serif" font-size="14.00" fill="#000000">sysReq.yZonTemResReq &#45;&gt; yZonTemResReq</text>
</g>
<!-- http://example.org#Buildings.Controls.OBC.ASHRAE.G36.TerminalUnits.CoolingOnly.Controller.timSup&#45;&gt;http://example.org#Buildings.Controls.OBC.ASHRAE.G36.TerminalUnits.CoolingOnly.Controller.sysReq -->
<g id="edge13" class="edge">
<title>http://example.org#Buildings.Controls.OBC.ASHRAE.G36.TerminalUnits.CoolingOnly.Controller.timSup&#45;&gt;http://example.org#Buildings.Controls.OBC.ASHRAE.G36.TerminalUnits.CoolingOnly.Controller.sysReq</title>
<path fill="none" stroke="#000000" d="M2986.6408,-231.6589C2904.8177,-205.2237 2752.1877,-155.9125 2665.2311,-127.8188"/>
<polygon fill="#000000" stroke="#000000" points="2666.0695,-124.4116 2655.4778,-124.6677 2663.9174,-131.0726 2666.0695,-124.4116"/>
<text text-anchor="middle" x="3009.3681" y="-191.4" font-family="Times,serif" font-size="14.00" fill="#000000">timSup.yAftSup &#45;&gt; uAftSup</text>
</g>
</g>
</svg>
